#define arial_width 756
#define arial_height 12
static char arial_bits[] = {
  0x00, 0x00, 0x00, 0x00, 0x00, 0x00, 0x00, 0x00, 0x00, 0x00, 0x00, 0x00, 
  0x00, 0x00, 0x00, 0x00, 0x00, 0x00, 0x00, 0x00, 0x00, 0x00, 0x00, 0x00, 
  0x00, 0x00, 0x00, 0x00, 0x00, 0x00, 0x00, 0x00, 0x00, 0x00, 0x00, 0x00, 
  0x00, 0x00, 0x00, 0x00, 0x00, 0x00, 0x00, 0x00, 0x00, 0x00, 0x00, 0x00, 
  0x00, 0x00, 0x00, 0x00, 0x00, 0x00, 0x00, 0x00, 0x00, 0x00, 0x00, 0x00, 
  0x00, 0x00, 0x00, 0x00, 0x00, 0x00, 0x00, 0x00, 0x00, 0x00, 0x00, 0x00, 
  0x00, 0x00, 0x00, 0x00, 0x00, 0x00, 0x00, 0x00, 0x00, 0x00, 0x00, 0x00, 
  0x00, 0x00, 0x00, 0x00, 0x00, 0x00, 0x00, 0x00, 0x00, 0x00, 0x00, 0x00, 
  0x02, 0x00, 0x80, 0x00, 0x80, 0x00, 0x20, 0x40, 0x08, 0x01, 0x01, 0x00, 
  0x00, 0x00, 0x00, 0x00, 0x00, 0x00, 0x10, 0x00, 0x00, 0x00, 0x00, 0x00, 
  0x00, 0x00, 0x80, 0x80, 0x0F, 0x38, 0x78, 0xE0, 0xC3, 0x07, 0x0E, 0x84, 
  0x10, 0x10, 0x42, 0x08, 0x10, 0x84, 0x10, 0x38, 0xF0, 0x80, 0x03, 0x1F, 
  0x78, 0xF0, 0x21, 0x84, 0x20, 0x42, 0x88, 0x10, 0x82, 0xE0, 0x03, 0x81, 
  0x03, 0x07, 0x08, 0x3C, 0x38, 0xF8, 0xE0, 0xC0, 0x81, 0x83, 0x80, 0x0F, 
  0x50, 0x70, 0x60, 0x04, 0x08, 0x30, 0x20, 0x20, 0x04, 0x00, 0x00, 0x00, 
  0x10, 0x02, 0x00, 0x04, 0x10, 0x1C, 0x00, 0x00, 0x00, 0x00, 0x00, 0x02, 
  0x00, 0x80, 0x00, 0x40, 0x00, 0x20, 0x00, 0x00, 0x01, 0x01, 0x00, 0x00, 
  0x00, 0x00, 0x00, 0x00, 0x00, 0x10, 0x00, 0x00, 0x00, 0x00, 0x00, 0x00, 
  0x00, 0x40, 0x81, 0x10, 0x44, 0x88, 0x20, 0x40, 0x00, 0x11, 0x84, 0x10, 
  0x10, 0x22, 0x08, 0x30, 0x86, 0x11, 0x44, 0x10, 0x41, 0x04, 0x21, 0x84, 
  0x40, 0x20, 0x84, 0x20, 0xA2, 0x08, 0x09, 0x44, 0x00, 0x81, 0x41, 0x84, 
  0x08, 0x0C, 0x04, 0x44, 0x40, 0x10, 0x21, 0x42, 0x84, 0x60, 0x10, 0x50, 
  0xA8, 0x90, 0x02, 0x14, 0x48, 0x70, 0x10, 0x08, 0x00, 0x00, 0x00, 0x08, 
  0x04, 0x00, 0x04, 0x10, 0x22, 0x00, 0x00, 0x00, 0x00, 0x0E, 0x1A, 0x38, 
  0xB0, 0xE0, 0xE0, 0x60, 0xA1, 0x41, 0x08, 0x09, 0xA1, 0x07, 0x0F, 0x1C, 
  0x34, 0xB0, 0x50, 0x70, 0x38, 0x44, 0x88, 0x10, 0x11, 0x22, 0x44, 0xF8, 
  0x40, 0x81, 0x10, 0x02, 0x08, 0x21, 0x40, 0x80, 0x20, 0x84, 0x10, 0x10, 
  0x12, 0x08, 0x30, 0x86, 0x12, 0x82, 0x10, 0x21, 0x08, 0x21, 0x04, 0x40, 
  0x20, 0x04, 0x11, 0xA4, 0x04, 0x09, 0x44, 0x80, 0x40, 0x01, 0x04, 0x08, 
  0x0A, 0x02, 0x04, 0x40, 0x10, 0x21, 0x42, 0x84, 0x20, 0x2B, 0x7C, 0x28, 
  0x90, 0x02, 0x14, 0x48, 0x20, 0x08, 0x10, 0x00, 0x04, 0x00, 0x08, 0x04, 
  0x21, 0x04, 0x08, 0x20, 0x04, 0x00, 0x10, 0x00, 0x11, 0x26, 0x44, 0xC8, 
  0x10, 0x41, 0x90, 0x61, 0x42, 0x08, 0x05, 0x61, 0x09, 0x11, 0x22, 0x4C, 
  0xC8, 0x30, 0x88, 0x10, 0x44, 0x88, 0x90, 0x12, 0x14, 0x44, 0x40, 0x40, 
  0x81, 0x1F, 0x02, 0x08, 0xE1, 0xC3, 0x83, 0x00, 0xFC, 0x10, 0x10, 0x1A, 
  0x08, 0x50, 0x85, 0x12, 0x82, 0x10, 0x21, 0x08, 0x1F, 0x18, 0x40, 0x20, 
  0x04, 0x11, 0xA4, 0x04, 0x06, 0x28, 0x80, 0x00, 0x01, 0x04, 0x07, 0x0A, 
  0x1E, 0x3C, 0x20, 0xE0, 0x20, 0x42, 0x84, 0x90, 0x2C, 0x28, 0x70, 0x60, 
  0x01, 0x22, 0x30, 0x50, 0x08, 0x10, 0x00, 0x04, 0x3E, 0x08, 0x04, 0x00, 
  0x04, 0x08, 0x10, 0x38, 0x00, 0x0E, 0x00, 0x1E, 0x22, 0x04, 0x88, 0xF0, 
  0x41, 0x10, 0x21, 0x42, 0x08, 0x03, 0x21, 0x09, 0x11, 0x22, 0x44, 0x88, 
  0x10, 0x30, 0x10, 0x44, 0x50, 0xA0, 0x0A, 0x08, 0x28, 0x20, 0x20, 0x82, 
  0x10, 0x02, 0x08, 0x21, 0x40, 0x80, 0x38, 0x84, 0x10, 0x10, 0x16, 0x08, 
  0x50, 0x85, 0x14, 0x82, 0xF0, 0x20, 0x08, 0x09, 0x60, 0x40, 0x20, 0x04, 
  0x0A, 0x14, 0x05, 0x06, 0x10, 0x40, 0x00, 0x01, 0x02, 0x08, 0x09, 0x20, 
  0x44, 0x20, 0x10, 0xC1, 0x43, 0x84, 0x50, 0x24, 0x28, 0xA0, 0x00, 0x0D, 
  0x00, 0x28, 0x00, 0x08, 0x10, 0x00, 0x1F, 0x00, 0x04, 0x08, 0x00, 0x04, 
  0x08, 0x08, 0x40, 0x00, 0x01, 0x00, 0x11, 0x22, 0x04, 0x88, 0x10, 0x40, 
  0x10, 0x21, 0x42, 0x08, 0x05, 0x21, 0x09, 0x11, 0x22, 0x44, 0x88, 0x10, 
  0x40, 0x10, 0x44, 0x50, 0xA0, 0x0A, 0x08, 0x28, 0x20, 0xE0, 0x83, 0x10, 
  0x02, 0x08, 0x21, 0x40, 0x80, 0x20, 0x84, 0x10, 0x12, 0x22, 0x08, 0x50, 
  0x85, 0x14, 0x82, 0x10, 0x20, 0x0B, 0x11, 0x80, 0x40, 0x20, 0x04, 0x0A, 
  0x14, 0x05, 0x09, 0x10, 0x40, 0x00, 0x01, 0x01, 0x08, 0x1F, 0x20, 0x44, 
  0x10, 0x10, 0x01, 0x42, 0x84, 0x50, 0x24, 0x7C, 0xA0, 0x80, 0x12, 0x00, 
  0xC4, 0x00, 0x08, 0x10, 0x0E, 0x04, 0x3E, 0x08, 0x04, 0x00, 0x04, 0x08, 
  0x08, 0x38, 0x00, 0x0E, 0x00, 0x19, 0x26, 0x44, 0xC8, 0x10, 0x41, 0x90, 
  0x21, 0x42, 0x08, 0x05, 0x21, 0x09, 0x11, 0x22, 0x4C, 0xC8, 0x10, 0x88, 
  0x10, 0x64, 0x20, 0x40, 0x04, 0x14, 0x10, 0x10, 0x10, 0x84, 0x10, 0x44, 
  0x88, 0x20, 0x40, 0x00, 0x11, 0x84, 0x10, 0x12, 0x22, 0x08, 0x90, 0x84, 
  0x18, 0x44, 0x10, 0x40, 0x04, 0x11, 0x84, 0x40, 0x20, 0x04, 0x04, 0x08, 
  0x02, 0x09, 0x10, 0x20, 0x00, 0x81, 0x80, 0x08, 0x08, 0x22, 0x44, 0x10, 
  0x10, 0x21, 0x42, 0x04, 0x50, 0x16, 0x14, 0xA8, 0x80, 0x12, 0x00, 0x44, 
  0x00, 0x08, 0x10, 0x00, 0x04, 0x00, 0x08, 0x04, 0x00, 0x04, 0x04, 0x00, 
  0x04, 0x00, 0x10, 0x00, 0x16, 0x1A, 0x38, 0xB0, 0xE0, 0x40, 0x60, 0x21, 
  0x42, 0x08, 0x09, 0x21, 0x09, 0x11, 0x1C, 0x34, 0xB0, 0x10, 0x70, 0x30, 
  0x58, 0x20, 0x40, 0x04, 0x22, 0x10, 0xF8, 0x10, 0x84, 0x0F, 0x38, 0x78, 
  0xE0, 0x43, 0x00, 0x0E, 0x84, 0x10, 0x0C, 0x42, 0xF8, 0x90, 0x84, 0x10, 
  0x38, 0x10, 0x80, 0x0B, 0x21, 0x78, 0x40, 0xC0, 0x03, 0x04, 0x08, 0x82, 
  0x10, 0x10, 0xF0, 0x03, 0xC1, 0x07, 0x07, 0x08, 0x1C, 0x38, 0x10, 0xE0, 
  0xC0, 0x81, 0x83, 0x90, 0x0D, 0x14, 0x70, 0x40, 0x0C, 0x00, 0xB8, 0x00, 
  0x08, 0x10, 0x00, 0x00, 0x00, 0x08, 0x04, 0x21, 0x04, 0x04, 0x08, 0x00, 
  0x08, 0x00, 0x02, 0x00, 0x00, 0x00, 0x00, 0x00, 0x00, 0x00, 0x01, 0x00, 
  0x08, 0x00, 0x00, 0x00, 0x00, 0x00, 0x04, 0x80, 0x00, 0x00, 0x00, 0x00, 
  0x00, 0x00, 0x00, 0x00, 0x10, 0x00, 0x00, 0x00, 0x00, 0x00, 0x00, 0x00, 
  0x00, 0x00, 0x00, 0x00, 0x00, 0x00, 0x00, 0x00, 0x00, 0x00, 0x00, 0x00, 
  0x00, 0x00, 0x00, 0x00, 0x00, 0x00, 0x00, 0x00, 0x00, 0x00, 0x00, 0x00, 
  0x00, 0x00, 0x00, 0x00, 0x00, 0x00, 0x00, 0x00, 0x00, 0x00, 0x00, 0x00, 
  0x00, 0x00, 0x20, 0x20, 0x00, 0x20, 0x00, 0x00, 0x00, 0x00, 0x00, 0x10, 
  0x08, 0x00, 0x00, 0x00, 0x08, 0x04, 0x20, 0x04, 0x00, 0x00, 0x00, 0x00, 
  0x00, 0x02, 0x00, 0x00, 0x00, 0x00, 0x00, 0x00, 0xF0, 0x00, 0x00, 0x04, 
  0x00, 0x00, 0x00, 0x00, 0x00, 0x04, 0x80, 0x00, 0x00, 0x00, 0x00, 0x00, 
  0x00, 0x00, 0x00, 0x08, 0x00, 0x00, 0x00, 0x00, 0x00, 0x00, 0x00, 0x00, 
  0x00, 0x00, 0x00, 0x00, 0x00, 0x00, 0x00, 0x00, 0x00, 0x00, 0x00, 0x00, 
  0x00, 0x00, 0x00, 0x00, 0x00, 0x00, 0x00, 0x00, 0x00, 0x00, 0x00, 0x00, 
  0x00, 0x00, 0x00, 0x00, 0x00, 0x00, 0x00, 0x00, 0x00, 0x00, 0x00, 0x00, 
  0x00, 0xC0, 0x1F, 0x00, 0x00, 0x00, 0x00, 0x00, 0x00, 0x00, 0x20, 0x04, 
  0x00, 0x00, 0x00, 0x10, 0x02, 0x20, 0x04, 0x00, 0x00, 0x00, 0x00, 0x00, 
  0x02, 0x00, 0x00, 0x00, 0x00, 0x00, 0x00, 0x00, 0x00, 0x00, 0x00, 0x00, 
  0x00, 0x00, 0x00, 0x00, 0x00, 0x00, 0x00, 0x00, 0x00, 0x00, 0x00, 0x00, 
  0x00, 0x00, 0x00, 0x00, 0x00, 0x00, 0x00, 0x00, 0x00, 0x00, 0x00, 0x00, 
  0x00, 0x00, 0x00, 0x00, 0x00, 0x00, 0x00, 0x00, 0x00, 0x00, 0x00, 0x00, 
  0x00, 0x00, 0x00, 0x00, 0x00, 0x00, 0x00, 0x00, 0x00, 0x00, 0x00, 0x00, 
  0x00, 0x00, 0x00, 0x00, 0x00, 0x00, 0x00, 0x00, 0x00, 0x00, 0x00, 0x00, 
  0x00, 0x00, 0x00, 0x00, 0x00, 0x00, 0x00, 0x00, 0x00, 0x00, 0x00, 0x00, 
  0x00, 0x00, 0x00, 0x00, 0x00, 0x00, 0x00, 0x00, 0x00, 0x00, 0x00, 0x00, 
  };
