#define consolas_width 491
#define consolas_height 14
static char consolas_bits[] = {
  0x00, 0x00, 0x00, 0x00, 0x00, 0x00, 0x00, 0x00, 0x00, 0x00, 0x00, 0x00, 
  0x00, 0x00, 0x00, 0x00, 0x00, 0x00, 0x00, 0x00, 0x00, 0x00, 0x00, 0x00, 
  0x00, 0x00, 0x00, 0x00, 0x00, 0x00, 0x00, 0x00, 0x00, 0x00, 0x00, 0x00, 
  0x00, 0x00, 0x00, 0x00, 0x00, 0x00, 0x00, 0x00, 0x00, 0x00, 0x00, 0x00, 
  0x00, 0x00, 0x00, 0x00, 0x00, 0x00, 0x00, 0x00, 0x00, 0x00, 0x00, 0x80, 
  0x00, 0x00, 0x00, 0x01, 0x00, 0x04, 0xC0, 0x01, 0x04, 0x08, 0x88, 0xC0, 
  0x01, 0x00, 0x00, 0x00, 0x00, 0x00, 0x80, 0x00, 0x00, 0x00, 0x00, 0x00, 
  0x00, 0xC3, 0xC3, 0xF3, 0xF8, 0x7C, 0x3C, 0x91, 0xCF, 0x23, 0x13, 0xCC, 
  0x44, 0x1C, 0x0F, 0xC7, 0xC3, 0xF3, 0x89, 0xC2, 0xA1, 0xD1, 0xC8, 0xC7, 
  0xE0, 0x78, 0x30, 0x3E, 0x8C, 0xCF, 0xC3, 0x01, 0x00, 0x18, 0x00, 0x00, 
  0x87, 0xC2, 0x33, 0x01, 0x00, 0x01, 0x00, 0x04, 0x60, 0x00, 0x04, 0x08, 
  0x88, 0x00, 0x01, 0x00, 0x00, 0x00, 0x00, 0x00, 0x80, 0x00, 0x00, 0x00, 
  0x00, 0x00, 0x00, 0x47, 0x66, 0x98, 0x09, 0x04, 0x86, 0x11, 0x02, 0xA2, 
  0x31, 0xD8, 0x4E, 0x32, 0x99, 0x4C, 0x22, 0x40, 0x8C, 0x46, 0x21, 0x8B, 
  0x0C, 0xE6, 0x90, 0xC0, 0x30, 0x02, 0x03, 0x4C, 0x24, 0x03, 0x00, 0x10, 
  0x00, 0x80, 0x88, 0xA2, 0xA8, 0x01, 0x1E, 0x0F, 0x87, 0xC7, 0x21, 0xF8, 
  0x3C, 0x0E, 0x8F, 0x0C, 0xD1, 0xF3, 0x70, 0x3C, 0x3C, 0x0D, 0xE7, 0x27, 
  0x12, 0x85, 0x45, 0x22, 0x1F, 0x45, 0x24, 0x10, 0x09, 0x04, 0x02, 0x11, 
  0x02, 0xA2, 0x10, 0xDC, 0x4C, 0x23, 0xD1, 0x48, 0x26, 0x40, 0x88, 0x44, 
  0x23, 0x8A, 0x05, 0x82, 0x80, 0x41, 0x28, 0x02, 0x01, 0x44, 0x36, 0x02, 
  0x00, 0x10, 0x0C, 0x86, 0xDE, 0xB7, 0xB0, 0x00, 0x30, 0x9B, 0x41, 0x26, 
  0xF3, 0xC9, 0x6C, 0x08, 0x88, 0x06, 0xA1, 0x32, 0xC9, 0x4C, 0x22, 0x93, 
  0x80, 0x20, 0x93, 0xAD, 0x28, 0x32, 0x88, 0x45, 0x26, 0x10, 0x09, 0x0C, 
  0x81, 0x11, 0x03, 0xE2, 0x30, 0xB0, 0x56, 0x23, 0x59, 0x48, 0xE6, 0x40, 
  0x88, 0x24, 0x2E, 0x06, 0x07, 0x81, 0x80, 0x70, 0x24, 0x1E, 0x0F, 0x84, 
  0x23, 0x02, 0x00, 0x10, 0x08, 0x44, 0x9D, 0xE2, 0x40, 0x00, 0x3C, 0x91, 
  0x40, 0xE4, 0x63, 0x48, 0x44, 0x08, 0x88, 0x03, 0x91, 0x92, 0x89, 0x44, 
  0x23, 0x81, 0x83, 0x20, 0xB2, 0xA0, 0x18, 0x16, 0x84, 0xCC, 0x23, 0x18, 
  0x79, 0x3C, 0x3B, 0x1F, 0x02, 0xE2, 0x10, 0xBC, 0x54, 0x61, 0x4F, 0xD8, 
  0x81, 0x41, 0x88, 0x2C, 0x2D, 0x06, 0x83, 0x81, 0xC0, 0x40, 0x26, 0x10, 
  0x19, 0xC2, 0xE3, 0x03, 0x00, 0x18, 0x00, 0xC0, 0x85, 0x82, 0xE3, 0x01, 
  0x22, 0x91, 0x60, 0x26, 0x20, 0x78, 0x64, 0x08, 0x88, 0x02, 0xD1, 0x12, 
  0x89, 0x44, 0x32, 0x03, 0x86, 0x20, 0xA2, 0xBC, 0x38, 0x14, 0x86, 0x4F, 
  0x34, 0x10, 0x19, 0x04, 0x22, 0x11, 0x02, 0xA2, 0x10, 0x84, 0x74, 0x23, 
  0xC1, 0x48, 0x03, 0x63, 0x8C, 0x28, 0x36, 0x0A, 0x82, 0x80, 0x60, 0xC0, 
  0x7E, 0x20, 0x11, 0x43, 0x04, 0x03, 0x00, 0x10, 0x00, 0x40, 0xE9, 0x87, 
  0x62, 0x01, 0x32, 0x99, 0x41, 0x66, 0x20, 0x08, 0x44, 0x08, 0x88, 0x06, 
  0xA1, 0x92, 0xC9, 0x64, 0x32, 0x01, 0x8C, 0x20, 0xE3, 0xD8, 0x2C, 0x0C, 
  0x83, 0x48, 0x66, 0x90, 0x09, 0x04, 0xA6, 0x11, 0x02, 0x22, 0x11, 0x84, 
  0x66, 0x32, 0x81, 0x4C, 0x02, 0x43, 0xC8, 0x38, 0x36, 0x1B, 0xC2, 0x80, 
  0x30, 0x40, 0x20, 0x30, 0x19, 0x41, 0x06, 0x61, 0x30, 0x00, 0x08, 0x44, 
  0xCF, 0xC2, 0x53, 0x01, 0x3E, 0x0F, 0xC7, 0xC5, 0x23, 0xF8, 0x44, 0x3E, 
  0x88, 0xCC, 0x97, 0x12, 0x71, 0x3C, 0x1E, 0x81, 0x07, 0xE7, 0x63, 0xD8, 
  0x64, 0x0C, 0x5F, 0xC8, 0xC3, 0xF3, 0xF8, 0x04, 0x3C, 0x91, 0xCF, 0x23, 
  0xF3, 0x85, 0x66, 0x1C, 0x01, 0x47, 0xE4, 0x41, 0x70, 0x18, 0xB2, 0x11, 
  0xC2, 0xE7, 0xF3, 0x79, 0x20, 0x0E, 0x0E, 0xC1, 0xE3, 0x60, 0x30, 0x10, 
  0x08, 0x46, 0x40, 0xE2, 0x99, 0x01, 0x00, 0x00, 0x00, 0x00, 0x00, 0x88, 
  0x00, 0x00, 0x0C, 0x00, 0x00, 0x00, 0x00, 0x04, 0x20, 0x00, 0x00, 0x00, 
  0x00, 0x00, 0x00, 0x04, 0x00, 0x00, 0x00, 0x00, 0x00, 0x00, 0x00, 0x00, 
  0x00, 0x00, 0x00, 0x00, 0x00, 0x00, 0x00, 0x02, 0x00, 0x00, 0x00, 0x00, 
  0x00, 0x00, 0x00, 0x00, 0x00, 0x00, 0x00, 0x00, 0x00, 0x00, 0x00, 0x00, 
  0x20, 0x00, 0x00, 0x84, 0x00, 0x40, 0x00, 0x00, 0x00, 0x00, 0x00, 0x00, 
  0x00, 0x78, 0x00, 0x00, 0x07, 0x00, 0x00, 0x00, 0x00, 0x04, 0x30, 0x00, 
  0x00, 0x00, 0x00, 0x00, 0x00, 0x07, 0x00, 0x00, 0x00, 0x00, 0x00, 0x00, 
  0x00, 0x00, 0x00, 0x00, 0x00, 0x00, 0x00, 0x00, 0x00, 0x0E, 0x00, 0x00, 
  0x00, 0x00, 0x00, 0x00, 0x00, 0x00, 0x00, 0x00, 0x00, 0x00, 0x00, 0x00, 
  0x00, 0x00, 0x18, 0x00, 0x00, 0x82, 0x07, 0x00, 0x00, 0x00, 0x00, 0x00, 
  0x00, 0x00, 0x00, 0x00, 0x00, 0x00, 0x00, 0x00, 0x00, 0x00, 0x00, 0x00, 
  0x00, 0x00, 0x00, 0x00, 0x00, 0x00, 0x00, 0x00, 0x00, 0x00, 0x00, 0x00, 
  0x00, 0x00, 0x00, 0x00, 0x00, 0x00, 0x00, 0x00, 0x00, 0x00, 0x00, 0x00, 
  0x00, 0x00, 0x00, 0x00, 0x00, 0x00, 0x00, 0x00, 0x00, 0x00, 0x00, 0x00, 
  0x00, 0x00, 0x00, 0x00, 0x00, 0x00, 0x00, 0x00, 0x00, 0x00, 0x00, 0x00, 
  0x00, 0x00, 0x00, 0x00, 0x00, 0x00, 0x00, 0x00, 0x00, 0x00, 0x00, 0x00, 
  0x00, 0x00, 0x00, 0x00, 0x00, 0x00, 0x00, 0x00, 0x00, 0x00, 0x00, 0x00, 
  0x00, 0x00, 0x00, 0x00, 0x00, 0x00, 0x00, 0x00, 0x00, 0x00, 0x00, 0x00, 
  0x00, 0x00, 0x00, 0x00, 0x00, 0x00, 0x00, 0x00, 0x00, 0x00, 0x00, 0x00, 
  0x00, 0x00, 0x00, 0x00, 0x00, 0x00, 0x00, 0x00, 0x00, 0x00, 0x00, 0x00, 
  0x00, 0x00, 0x00, 0x00, 0x00, 0x00, 0x00, 0x00, 0x00, 0x00, 0x00, 0x00, 
  0x00, 0x00, 0x00, 0x00, 0x00, 0x00, 0x00, 0x00, 0x00, 0x00, 0x00, 0x00, 
  0x00, 0x00, 0x00, 0x00, 0x00, 0x00, 0x00, 0x00, 0x00, 0x00, 0x00, 0x00, 
  0x00, 0x00, 0x00, 0x00, 0x00, 0x00, 0x00, 0x00, 0x00, 0x00, 0x00, 0x00, 
  0x00, 0x00, 0x00, 0x00, 0x00, 0x00, 0x00, 0x00, 0x00, 0x00, 0x00, 0x00, 
  0x00, 0x00, 0x00, 0x00, };
