#define arial_bold_width 501
#define arial_bold_height 15
static char arial_bold_bits[] = {
  0x00, 0x00, 0x00, 0x00, 0x00, 0x00, 0x00, 0x00, 0x00, 0x00, 0x00, 0x00, 
  0x00, 0x00, 0x00, 0x00, 0x00, 0x00, 0x00, 0x00, 0x00, 0x00, 0x00, 0x00, 
  0x00, 0x00, 0x00, 0x00, 0x00, 0x00, 0x00, 0x00, 0x00, 0x00, 0x00, 0x00, 
  0x00, 0x00, 0x00, 0x00, 0x00, 0x00, 0x00, 0x00, 0x00, 0x00, 0x00, 0x00, 
  0x00, 0x00, 0x00, 0x00, 0x00, 0x00, 0x00, 0x00, 0x00, 0x00, 0x00, 0x00, 
  0x00, 0x00, 0x00, 0x00, 0x00, 0x00, 0x00, 0x00, 0x00, 0x00, 0x00, 0x00, 
  0x00, 0x00, 0x00, 0x00, 0x00, 0x00, 0x00, 0x00, 0x00, 0x00, 0x00, 0x00, 
  0x00, 0x00, 0x00, 0x00, 0x00, 0x00, 0x00, 0x00, 0x00, 0x00, 0x00, 0x00, 
  0x00, 0x00, 0x00, 0x00, 0x00, 0x00, 0x00, 0x00, 0x00, 0x00, 0x00, 0x00, 
  0x00, 0x00, 0x00, 0x00, 0x00, 0x00, 0x00, 0x00, 0x00, 0x00, 0x00, 0x00, 
  0x00, 0x00, 0x00, 0x00, 0x00, 0x00, 0x00, 0x00, 0x00, 0x00, 0x00, 0x00, 
  0x00, 0x00, 0x00, 0x00, 0x00, 0x00, 0x00, 0x00, 0x00, 0x00, 0x00, 0x00, 
  0x00, 0x00, 0x00, 0x00, 0x00, 0x00, 0x00, 0x00, 0x00, 0x00, 0x00, 0x00, 
  0x00, 0x00, 0x00, 0x00, 0x00, 0x00, 0x00, 0x00, 0x00, 0x00, 0x00, 0x00, 
  0x00, 0x00, 0x00, 0x00, 0x00, 0x00, 0x00, 0x00, 0x00, 0x00, 0x00, 0x00, 
  0x00, 0x00, 0x00, 0x00, 0x00, 0x00, 0x30, 0x00, 0x00, 0x00, 0x03, 0x00, 
  0x0C, 0x70, 0x80, 0xC1, 0x16, 0x18, 0x00, 0x00, 0x00, 0x00, 0x00, 0x00, 
  0x04, 0x00, 0x00, 0x00, 0x00, 0x00, 0x0C, 0x7E, 0xF8, 0xF8, 0xF0, 0xF3, 
  0xF3, 0x31, 0x66, 0x98, 0x31, 0x83, 0x73, 0xC6, 0xF8, 0xF8, 0xF0, 0xF1, 
  0xC3, 0xF3, 0x37, 0x36, 0x3C, 0xE7, 0xB3, 0x61, 0x3F, 0x86, 0xC3, 0x81, 
  0xF8, 0x38, 0x3F, 0x8E, 0x07, 0x30, 0x00, 0xF8, 0x20, 0x79, 0x1C, 0x01, 
  0x00, 0x01, 0x00, 0x0C, 0x30, 0x80, 0x40, 0x10, 0x18, 0x00, 0x00, 0x00, 
  0x00, 0x00, 0x00, 0x06, 0x00, 0x00, 0x00, 0x00, 0x00, 0x1C, 0x6E, 0xDC, 
  0xB9, 0xB3, 0xB1, 0x7A, 0x33, 0x66, 0x98, 0x19, 0x83, 0x73, 0xCE, 0xDC, 
  0xB9, 0xB9, 0xB3, 0x67, 0xA7, 0x11, 0x26, 0x36, 0x67, 0x3B, 0x33, 0x3D, 
  0xC7, 0xE6, 0xC3, 0x58, 0x6C, 0x32, 0x9F, 0x0E, 0x30, 0x00, 0x86, 0xA3, 
  0xED, 0x96, 0x00, 0x9E, 0x1F, 0x87, 0xC7, 0x79, 0xBE, 0x4F, 0xBE, 0xD9, 
  0x37, 0x3E, 0x9E, 0xCF, 0xEF, 0x3D, 0x6F, 0x1A, 0xCD, 0xBC, 0x8D, 0x7E, 
  0x1E, 0xE6, 0x8C, 0x18, 0x33, 0x30, 0x18, 0x32, 0x26, 0x98, 0x0E, 0x83, 
  0x73, 0xCE, 0x0C, 0x9B, 0x1B, 0x37, 0x66, 0x84, 0x31, 0x66, 0x66, 0x6F, 
  0x1E, 0x3E, 0x98, 0x47, 0x06, 0xE3, 0x79, 0x0C, 0x18, 0xDB, 0x0C, 0x30, 
  0x33, 0xFB, 0xFA, 0x3B, 0xD4, 0x00, 0x36, 0x9B, 0xCD, 0x6E, 0x33, 0xBB, 
  0xDD, 0xF2, 0xC8, 0x6E, 0x26, 0xBB, 0xDD, 0x6E, 0x66, 0x66, 0x9A, 0xED, 
  0xF6, 0xC8, 0x30, 0x36, 0x7E, 0x0C, 0x08, 0xF3, 0xF3, 0x0D, 0xF0, 0x27, 
  0x98, 0x0F, 0x83, 0x57, 0xDE, 0x0C, 0x8B, 0x0D, 0xF6, 0xE3, 0x83, 0x30, 
  0x66, 0x66, 0x2D, 0x0C, 0x1E, 0x0C, 0x06, 0x86, 0xF1, 0xD8, 0x3E, 0x18, 
  0x8F, 0x0C, 0x30, 0x22, 0xED, 0xB2, 0x78, 0x5C, 0x00, 0x38, 0xF3, 0xE0, 
  0xFC, 0xB3, 0xB1, 0xC8, 0xF6, 0x58, 0x66, 0xE6, 0xB1, 0x58, 0x6C, 0x3C, 
  0x26, 0xB6, 0xE9, 0xE6, 0xD8, 0x38, 0x33, 0xE6, 0x06, 0x18, 0x73, 0x31, 
  0x98, 0x77, 0x66, 0x98, 0x0F, 0x83, 0x7E, 0xDA, 0x06, 0xFB, 0x19, 0xB6, 
  0x81, 0x87, 0x31, 0xC6, 0xE3, 0x3D, 0x1E, 0x0C, 0x06, 0x06, 0x03, 0x9B, 
  0xC1, 0x6C, 0x0C, 0x99, 0x0F, 0x10, 0x80, 0x45, 0xB2, 0xE0, 0x60, 0x03, 
  0x3E, 0xB3, 0x60, 0x3C, 0x30, 0xB1, 0x59, 0xF6, 0xD8, 0x66, 0x66, 0xB1, 
  0x79, 0x6C, 0x70, 0x66, 0xF6, 0xB8, 0xE3, 0x78, 0x0C, 0x7F, 0xC6, 0x8C, 
  0x19, 0x33, 0x30, 0x18, 0x37, 0x66, 0x99, 0x19, 0x83, 0x5F, 0xF6, 0x0C, 
  0x1B, 0x98, 0x37, 0x23, 0x86, 0x31, 0xC6, 0xE3, 0x39, 0x1E, 0x0C, 0x03, 
  0x86, 0x21, 0xFB, 0xCB, 0x6E, 0x8C, 0x19, 0x0C, 0x10, 0x80, 0xC6, 0xFA, 
  0xA3, 0xA0, 0x05, 0x33, 0xBB, 0xCD, 0x66, 0x33, 0xBF, 0xD9, 0xB6, 0xD9, 
  0x66, 0x66, 0x9B, 0xDB, 0x26, 0x6C, 0x66, 0xE3, 0xB0, 0xF3, 0x71, 0x2E, 
  0x63, 0xE6, 0xFC, 0xB9, 0x73, 0x32, 0xB8, 0x37, 0xE6, 0x9F, 0x39, 0x9B, 
  0x6C, 0xE6, 0xFC, 0x19, 0xF8, 0x33, 0x67, 0x86, 0x71, 0xC3, 0xC1, 0x38, 
  0x33, 0x8C, 0x27, 0xC6, 0x66, 0xD3, 0xD9, 0x6C, 0x04, 0x9B, 0x4F, 0x22, 
  0x11, 0x65, 0xD3, 0xFC, 0x30, 0x05, 0x3E, 0x9F, 0x87, 0xEF, 0x31, 0xB6, 
  0xC8, 0x96, 0x59, 0x64, 0x62, 0x9E, 0x8F, 0x6F, 0x3C, 0xEE, 0x67, 0x30, 
  0x9B, 0x31, 0xFE, 0x61, 0x7E, 0x78, 0xF8, 0xF0, 0x33, 0xF0, 0x31, 0x66, 
  0x8F, 0x31, 0xBF, 0x6D, 0xC2, 0xF8, 0x18, 0xF0, 0x37, 0xE6, 0x87, 0xE1, 
  0x83, 0xC1, 0x98, 0x73, 0x8C, 0x3F, 0xE6, 0xC7, 0x81, 0x70, 0x38, 0x06, 
  0x8F, 0xC7, 0x32, 0x33, 0xFD, 0xD8, 0x78, 0x10, 0x03, 0x00, 0x00, 0x00, 
  0x00, 0x00, 0x1B, 0x00, 0x03, 0x00, 0x00, 0x00, 0x80, 0x00, 0x0C, 0x00, 
  0x00, 0x00, 0x00, 0x00, 0x30, 0x00, 0x00, 0x00, 0x00, 0x00, 0x00, 0x00, 
  0x00, 0x00, 0x00, 0x00, 0x00, 0x00, 0x00, 0x00, 0x00, 0x00, 0x00, 0x00, 
  0x00, 0x00, 0x00, 0x00, 0x00, 0x00, 0x00, 0x00, 0x00, 0x00, 0x00, 0x00, 
  0x00, 0x00, 0x00, 0x00, 0x00, 0x06, 0x20, 0x07, 0x03, 0x20, 0x00, 0x00, 
  0x00, 0x00, 0x00, 0x00, 0x00, 0x1F, 0x00, 0x03, 0x00, 0x00, 0x00, 0x80, 
  0x01, 0x0C, 0x00, 0x00, 0x00, 0x00, 0x00, 0x18, 0x00, 0x00, 0x00, 0x00, 
  0x00, 0x00, 0x00, 0x00, 0x00, 0x00, 0x00, 0x00, 0x00, 0x00, 0x00, 0x00, 
  0x00, 0x00, 0x00, 0x00, 0x00, 0x00, 0x00, 0x00, 0x00, 0x00, 0x00, 0x00, 
  0x00, 0x00, 0x00, 0x00, 0x00, 0x00, 0x00, 0x00, 0x02, 0x10, 0xFC, 0x01, 
  0x00, 0x00, 0x00, 0x00, 0x00, 0x00, 0x00, 0x00, 0x00, 0x00, 0x00, 0x00, 
  0x00, 0x00, 0x00, 0x00, 0x00, 0x00, 0x00, 0x00, 0x00, 0x00, 0x00, 0x00, 
  0x00, 0x00, 0x00, 0x00, 0x00, 0x00, 0x00, 0x00, 0x00, 0x00, 0x00, 0x00, 
  0x00, 0x00, 0x00, 0x00, 0x00, 0x00, 0x00, 0x00, 0x00, 0x00, 0x00, 0x00, 
  0x00, 0x00, 0x00, 0x00, 0x00, 0x00, 0x00, 0x00, 0x00, 0x00, 0x00, 0x00, 
  0x00, 0x00, 0x00, 0x00, 0x00, 0x00, 0x00, 0x00, 0x00, 0x00, 0x00, 0x00, 
  0x00, 0x00, 0x00, 0x00, 0x00, 0x00, 0x00, 0x00, 0x00, 0x00, 0x00, 0x00, 
  0x00, 0x00, 0x00, 0x00, 0x00, 0x00, 0x00, 0x00, 0x00, 0x00, 0x00, 0x00, 
  0x00, 0x00, 0x00, 0x00, 0x00, 0x00, 0x00, 0x00, 0x00, 0x00, 0x00, 0x00, 
  0x00, 0x00, 0x00, 0x00, 0x00, 0x00, 0x00, 0x00, 0x00, 0x00, 0x00, 0x00, 
  0x00, 0x00, 0x00, 0x00, 0x00, 0x00, 0x00, 0x00, 0x00, };
