#define arial_italic_width 484
#define arial_italic_height 15
static char arial_italic_bits[] = {
  0x00, 0x00, 0x00, 0x00, 0x00, 0x00, 0x00, 0x00, 0x00, 0x00, 0x00, 0x00, 
  0x00, 0x00, 0x00, 0x00, 0x00, 0x00, 0x00, 0x00, 0x00, 0x00, 0x00, 0x00, 
  0x00, 0x00, 0x00, 0x00, 0x00, 0x00, 0x00, 0x00, 0x00, 0x00, 0x00, 0x00, 
  0x00, 0x00, 0x00, 0x00, 0x00, 0x00, 0x00, 0x00, 0x00, 0x00, 0x00, 0x00, 
  0x00, 0x00, 0x00, 0x00, 0x00, 0x00, 0x00, 0x00, 0x00, 0x00, 0x00, 0x00, 
  0x00, 0x00, 0x00, 0x00, 0x00, 0x00, 0x00, 0x00, 0x00, 0x00, 0x00, 0x00, 
  0x00, 0x00, 0x00, 0x00, 0x00, 0x00, 0x00, 0x00, 0x00, 0x00, 0x00, 0x00, 
  0x00, 0x00, 0x00, 0x00, 0x00, 0x00, 0x00, 0x00, 0x00, 0x00, 0x00, 0x00, 
  0x00, 0x00, 0x00, 0x00, 0x00, 0x00, 0x00, 0x00, 0x00, 0x00, 0x00, 0x00, 
  0x00, 0x00, 0x00, 0x00, 0x00, 0x00, 0x00, 0x00, 0x00, 0x00, 0x00, 0x00, 
  0x00, 0x00, 0x00, 0x00, 0x00, 0x00, 0x00, 0x00, 0x00, 0x00, 0x00, 0x00, 
  0x00, 0x00, 0x00, 0x00, 0x00, 0x00, 0x00, 0x00, 0x00, 0x00, 0x00, 0x00, 
  0x00, 0x00, 0x00, 0x00, 0x00, 0x00, 0x00, 0x00, 0x00, 0x00, 0x00, 0x00, 
  0x00, 0x00, 0x00, 0x00, 0x00, 0x00, 0x00, 0x00, 0x00, 0x00, 0x00, 0x00, 
  0x00, 0x00, 0x00, 0x00, 0x00, 0x00, 0x00, 0x00, 0x00, 0x00, 0x00, 0x00, 
  0x20, 0x00, 0x00, 0x00, 0x02, 0x00, 0x04, 0x70, 0x40, 0x20, 0x09, 0x02, 
  0x00, 0x00, 0x00, 0x00, 0x00, 0x10, 0x00, 0x00, 0x00, 0x00, 0x00, 0x86, 
  0x0F, 0x1F, 0x1F, 0x7E, 0x7E, 0x3E, 0x82, 0x04, 0x0B, 0x09, 0x0C, 0x36, 
  0xC4, 0xC7, 0x0F, 0x8F, 0x1F, 0x1E, 0xBF, 0x20, 0xC1, 0x31, 0x0E, 0x0F, 
  0xFF, 0x21, 0x1E, 0x0E, 0xC4, 0xC7, 0xF1, 0x71, 0x3C, 0x80, 0x01, 0x7C, 
  0xA0, 0x78, 0x1C, 0x01, 0x00, 0x02, 0x00, 0x04, 0x10, 0x40, 0x00, 0x08, 
  0x02, 0x00, 0x00, 0x00, 0x00, 0x00, 0x10, 0x00, 0x00, 0x00, 0x00, 0x00, 
  0x87, 0x98, 0x31, 0x31, 0x02, 0x02, 0x63, 0xC2, 0x04, 0xC9, 0x08, 0x0C, 
  0x73, 0x64, 0x4C, 0xC8, 0x98, 0x30, 0x33, 0x8C, 0x30, 0x21, 0x31, 0x9A, 
  0x99, 0xC1, 0x38, 0x22, 0x19, 0x46, 0x20, 0x81, 0xC9, 0x24, 0x80, 0x01, 
  0x81, 0x90, 0xA8, 0x16, 0x00, 0x3C, 0x1F, 0xC7, 0xE7, 0xB9, 0xCF, 0xB3, 
  0x4D, 0xFA, 0xC6, 0xE3, 0xF9, 0xB8, 0xDC, 0xB9, 0x2C, 0xCE, 0xB4, 0xC5, 
  0x1F, 0x85, 0xD8, 0x00, 0x21, 0x02, 0x02, 0x41, 0x43, 0x04, 0x69, 0x08, 
  0x8C, 0x53, 0x26, 0x48, 0x58, 0x90, 0x10, 0x01, 0x84, 0x30, 0xB1, 0x39, 
  0xD3, 0x90, 0x40, 0x1C, 0x30, 0x18, 0xC7, 0xF3, 0xC1, 0x48, 0x62, 0x80, 
  0xA4, 0x7D, 0xFD, 0x29, 0xD2, 0x00, 0x22, 0x93, 0x69, 0x16, 0x59, 0x6C, 
  0x92, 0x34, 0x9B, 0x69, 0x32, 0x99, 0xCC, 0x66, 0xDA, 0x24, 0xCA, 0xA6, 
  0x4C, 0x8C, 0xCD, 0xCF, 0x80, 0x61, 0x7F, 0xBF, 0x00, 0xFE, 0x84, 0x3D, 
  0x0C, 0x8E, 0x52, 0x36, 0x68, 0x6C, 0xB0, 0x1F, 0x07, 0x84, 0x10, 0x11, 
  0xAD, 0x71, 0x70, 0x20, 0x10, 0x10, 0x8E, 0x46, 0x32, 0x41, 0x78, 0x66, 
  0x80, 0x80, 0x66, 0x91, 0x18, 0x4C, 0x00, 0x3C, 0xB1, 0x20, 0xF2, 0x59, 
  0x64, 0x92, 0x1C, 0x89, 0x2C, 0x12, 0x8A, 0x45, 0xC2, 0x48, 0x24, 0xA9, 
  0x62, 0x24, 0x84, 0xC8, 0x48, 0x80, 0x61, 0x03, 0x83, 0x79, 0x43, 0x86, 
  0x6C, 0x04, 0x5A, 0x9B, 0x12, 0xE8, 0x27, 0xD0, 0x04, 0x18, 0xC6, 0x10, 
  0x1B, 0xA5, 0x30, 0x60, 0x30, 0x10, 0x0C, 0x48, 0x06, 0x16, 0x21, 0x4C, 
  0x7C, 0x40, 0x80, 0x22, 0xD1, 0x70, 0xA0, 0x03, 0x22, 0xD1, 0x30, 0x12, 
  0x68, 0x24, 0x92, 0x3C, 0x89, 0x24, 0x1A, 0x8B, 0x46, 0x82, 0x49, 0x64, 
  0xA9, 0x63, 0x2C, 0xC2, 0x4F, 0xD8, 0x90, 0x20, 0x01, 0x81, 0x61, 0x41, 
  0x86, 0x4C, 0x04, 0x72, 0x99, 0x32, 0x6C, 0x60, 0x50, 0x88, 0x10, 0x42, 
  0x18, 0x0E, 0xE7, 0x58, 0x20, 0x08, 0x18, 0x84, 0xC8, 0x27, 0x16, 0x31, 
  0x44, 0x22, 0x40, 0xC0, 0x22, 0xF9, 0x55, 0x90, 0x02, 0x33, 0x91, 0x24, 
  0x93, 0x49, 0x26, 0x92, 0x24, 0xC9, 0x24, 0x12, 0xCD, 0x64, 0x22, 0x4B, 
  0xC6, 0xB8, 0xF1, 0x18, 0x63, 0x48, 0x88, 0x98, 0x38, 0x01, 0x01, 0x21, 
  0x61, 0x9A, 0xC4, 0x04, 0x32, 0x89, 0x23, 0x26, 0x40, 0x4E, 0x98, 0x31, 
  0xC2, 0x08, 0x06, 0x63, 0xCC, 0x30, 0x0C, 0x08, 0x83, 0x0C, 0x22, 0x32, 
  0x11, 0x44, 0x12, 0x00, 0x80, 0xB6, 0x59, 0x54, 0x48, 0x02, 0xBE, 0x8F, 
  0xE7, 0xF3, 0xCC, 0x17, 0xDB, 0xE6, 0x49, 0x34, 0xF2, 0x74, 0x7C, 0xE3, 
  0xD9, 0xC7, 0x98, 0x99, 0x98, 0x6F, 0xD8, 0x0F, 0xCF, 0x0F, 0x3F, 0x01, 
  0x9F, 0x21, 0x72, 0x84, 0x7F, 0x33, 0x09, 0xC3, 0x23, 0x80, 0x6F, 0x10, 
  0x0F, 0x82, 0x07, 0x06, 0x63, 0x86, 0x20, 0xFE, 0x08, 0x1F, 0x07, 0xE3, 
  0xE1, 0x10, 0x3C, 0x1E, 0x49, 0x92, 0xFC, 0x48, 0x3C, 0x84, 0x03, 0x00, 
  0x00, 0x00, 0x00, 0x00, 0x02, 0x40, 0x00, 0x00, 0x00, 0x00, 0x04, 0x20, 
  0x00, 0x00, 0x00, 0x00, 0x00, 0x08, 0x00, 0x00, 0x00, 0x00, 0x00, 0x00, 
  0x00, 0x00, 0x00, 0x00, 0x00, 0x00, 0x00, 0x00, 0x00, 0x00, 0x00, 0x08, 
  0x00, 0x00, 0x00, 0x00, 0x00, 0x00, 0x00, 0x00, 0x00, 0x00, 0x00, 0x00, 
  0x00, 0x00, 0x00, 0x00, 0x00, 0x08, 0x10, 0x03, 0x01, 0x00, 0x00, 0x00, 
  0x00, 0x00, 0x00, 0x00, 0xC0, 0x03, 0x60, 0x00, 0x00, 0x00, 0x00, 0x04, 
  0x20, 0x00, 0x00, 0x00, 0x00, 0x00, 0x06, 0x00, 0x00, 0x00, 0x00, 0x00, 
  0x00, 0x00, 0x00, 0x00, 0x00, 0x00, 0x00, 0x00, 0x00, 0x00, 0x00, 0x00, 
  0x00, 0x00, 0x00, 0x00, 0x00, 0x00, 0x00, 0x00, 0x00, 0x00, 0x00, 0x00, 
  0x00, 0x00, 0x00, 0x00, 0x00, 0x00, 0x00, 0x00, 0xFE, 0x00, 0x00, 0x00, 
  0x00, 0x00, 0x00, 0x00, 0x00, 0x00, 0x00, 0x00, 0x00, 0x00, 0x00, 0x00, 
  0x00, 0x00, 0x00, 0x00, 0x00, 0x00, 0x00, 0x00, 0x00, 0x00, 0x00, 0x00, 
  0x00, 0x00, 0x00, 0x00, 0x00, 0x00, 0x00, 0x00, 0x00, 0x00, 0x00, 0x00, 
  0x00, 0x00, 0x00, 0x00, 0x00, 0x00, 0x00, 0x00, 0x00, 0x00, 0x00, 0x00, 
  0x00, 0x00, 0x00, 0x00, 0x00, 0x00, 0x00, 0x00, 0x00, 0x00, 0x00, 0x00, 
  0x00, 0x00, 0x00, 0x00, 0x00, 0x00, 0x00, 0x00, 0x00, 0x00, 0x00, 0x00, 
  0x00, 0x00, 0x00, 0x00, 0x00, 0x00, 0x00, 0x00, 0x00, 0x00, 0x00, 0x00, 
  0x00, 0x00, 0x00, 0x00, 0x00, 0x00, 0x00, 0x00, 0x00, 0x00, 0x00, 0x00, 
  0x00, 0x00, 0x00, 0x00, 0x00, 0x00, 0x00, 0x00, 0x00, 0x00, 0x00, 0x00, 
  0x00, 0x00, 0x00, 0x00, 0x00, 0x00, 0x00, 0x00, 0x00, 0x00, 0x00, 0x00, 
  0x00, 0x00, 0x00, };
