#define arial_width 484
#define arial_height 15
static char arial_bits[] = {
  0x00, 0x00, 0x00, 0x00, 0x00, 0x00, 0x00, 0x00, 0x00, 0x00, 0x00, 0x00, 
  0x00, 0x00, 0x00, 0x00, 0x00, 0x00, 0x00, 0x00, 0x00, 0x00, 0x00, 0x00, 
  0x00, 0x00, 0x00, 0x00, 0x00, 0x00, 0x00, 0x00, 0x00, 0x00, 0x00, 0x00, 
  0x00, 0x00, 0x00, 0x00, 0x00, 0x00, 0x00, 0x00, 0x00, 0x00, 0x00, 0x00, 
  0x00, 0x00, 0x00, 0x00, 0x00, 0x00, 0x00, 0x00, 0x00, 0x00, 0x00, 0x00, 
  0x00, 0x00, 0x00, 0x00, 0x00, 0x00, 0x00, 0x00, 0x00, 0x00, 0x00, 0x00, 
  0x00, 0x00, 0x00, 0x00, 0x00, 0x00, 0x00, 0x00, 0x00, 0x00, 0x00, 0x00, 
  0x00, 0x00, 0x00, 0x00, 0x00, 0x00, 0x00, 0x00, 0x00, 0x00, 0x00, 0x00, 
  0x00, 0x00, 0x00, 0x00, 0x00, 0x00, 0x00, 0x00, 0x00, 0x00, 0x00, 0x00, 
  0x00, 0x00, 0x00, 0x00, 0x00, 0x00, 0x00, 0x00, 0x00, 0x00, 0x00, 0x00, 
  0x00, 0x00, 0x00, 0x00, 0x00, 0x00, 0x00, 0x00, 0x00, 0x00, 0x00, 0x00, 
  0x00, 0x00, 0x00, 0x00, 0x00, 0x00, 0x00, 0x00, 0x00, 0x00, 0x00, 0x00, 
  0x00, 0x00, 0x00, 0x00, 0x00, 0x00, 0x00, 0x00, 0x00, 0x00, 0x00, 0x00, 
  0x00, 0x00, 0x00, 0x00, 0x00, 0x00, 0x00, 0x00, 0x00, 0x00, 0x00, 0x00, 
  0x00, 0x00, 0x00, 0x00, 0x00, 0x00, 0x00, 0x00, 0x00, 0x00, 0x00, 0x00, 
  0x10, 0x00, 0x00, 0x80, 0x01, 0x00, 0x02, 0x38, 0x20, 0x90, 0x04, 0x01, 
  0x00, 0x00, 0x00, 0x00, 0x00, 0x08, 0x00, 0x00, 0x00, 0x00, 0x00, 0xC3, 
  0x87, 0x8F, 0x0F, 0x3F, 0x3F, 0x1F, 0x41, 0x82, 0x84, 0x04, 0x86, 0x09, 
  0xE2, 0xE3, 0xC7, 0xC7, 0x0F, 0xCF, 0x5F, 0xD0, 0xE0, 0x18, 0x85, 0x86, 
  0xFD, 0x18, 0x0E, 0x07, 0xE2, 0xE3, 0xFC, 0x38, 0x1C, 0x40, 0x00, 0x7C, 
  0x90, 0x7C, 0x8E, 0x00, 0x00, 0x01, 0x00, 0x02, 0x08, 0x20, 0x00, 0x06, 
  0x01, 0x00, 0x00, 0x00, 0x00, 0x00, 0x08, 0x00, 0x00, 0x00, 0x00, 0x00, 
  0x43, 0xC8, 0x98, 0x10, 0x01, 0x81, 0x21, 0x61, 0x82, 0x66, 0x04, 0x86, 
  0x19, 0x33, 0x26, 0x64, 0x4C, 0x98, 0x18, 0x42, 0x98, 0xD0, 0x1C, 0x4D, 
  0xCC, 0x40, 0x0C, 0x99, 0x08, 0x23, 0x90, 0x41, 0x44, 0x23, 0xC0, 0x00, 
  0x82, 0x90, 0x54, 0x5A, 0x00, 0x1E, 0x0F, 0xE7, 0xE3, 0xDC, 0xE7, 0x91, 
  0x64, 0x79, 0xE7, 0xE1, 0xF8, 0x7C, 0xEE, 0x5D, 0x34, 0x47, 0x9A, 0x46, 
  0x9F, 0x47, 0x4C, 0x80, 0x30, 0x01, 0x81, 0x20, 0x41, 0x82, 0x24, 0x04, 
  0x8E, 0x39, 0x12, 0x24, 0x2C, 0x48, 0x98, 0x00, 0x42, 0x90, 0x90, 0x94, 
  0x78, 0x48, 0x60, 0x16, 0x10, 0x8C, 0xE3, 0x11, 0x40, 0x64, 0x22, 0x40, 
  0x92, 0x7D, 0xFD, 0x05, 0x4A, 0x00, 0x32, 0x91, 0x28, 0x13, 0x49, 0x36, 
  0x93, 0x14, 0xC9, 0x24, 0x12, 0x89, 0x64, 0x22, 0x49, 0x24, 0xE5, 0xF2, 
  0x64, 0x8C, 0xC4, 0x47, 0x80, 0x20, 0x3F, 0x9F, 0x00, 0x7F, 0x86, 0x3C, 
  0x04, 0x4A, 0x69, 0x1A, 0x2C, 0x34, 0xD0, 0x8F, 0x07, 0x46, 0x98, 0x99, 
  0x94, 0x30, 0x38, 0x30, 0x18, 0x18, 0x46, 0x22, 0xF3, 0x20, 0x3C, 0x32, 
  0x40, 0x80, 0x66, 0x59, 0x1C, 0x2E, 0x00, 0x38, 0xD1, 0x30, 0xFA, 0x49, 
  0x24, 0xD2, 0x1C, 0x89, 0x24, 0x1A, 0x89, 0x46, 0xE2, 0x68, 0x24, 0xA9, 
  0x62, 0x24, 0xC4, 0x4C, 0x6C, 0x80, 0x20, 0x01, 0xC1, 0x78, 0x61, 0x82, 
  0x2C, 0x04, 0x4A, 0x49, 0x13, 0xEC, 0x27, 0x58, 0x04, 0x1C, 0x42, 0x10, 
  0x89, 0xA5, 0x30, 0x30, 0x18, 0x08, 0x0C, 0x4C, 0x02, 0x1A, 0x31, 0x44, 
  0x3E, 0x40, 0x80, 0x62, 0x49, 0x70, 0x90, 0x01, 0x36, 0xD1, 0x20, 0x1A, 
  0x68, 0x24, 0x92, 0x14, 0x49, 0x24, 0x1B, 0x8D, 0x46, 0x83, 0x49, 0x64, 
  0xA9, 0x63, 0x28, 0xC2, 0x4F, 0x48, 0x90, 0x20, 0x01, 0x81, 0x60, 0x61, 
  0x8A, 0x44, 0x04, 0x5A, 0x89, 0x13, 0x24, 0x20, 0x58, 0x8C, 0x10, 0x42, 
  0x18, 0x0D, 0xE3, 0x48, 0x10, 0x0C, 0x18, 0x86, 0xE8, 0x07, 0x1A, 0x11, 
  0x44, 0x20, 0x40, 0x80, 0x22, 0xFD, 0x50, 0x50, 0x02, 0x33, 0x91, 0x2C, 
  0x13, 0x49, 0x26, 0xD3, 0xB4, 0x49, 0x2C, 0x12, 0x89, 0x64, 0x22, 0x69, 
  0xC6, 0xB8, 0xD1, 0x18, 0x43, 0x58, 0xCC, 0x98, 0x30, 0x01, 0x81, 0x63, 
  0x41, 0xDA, 0xC4, 0x04, 0x32, 0x89, 0x33, 0x26, 0x60, 0x4E, 0x98, 0x11, 
  0xC2, 0x08, 0x06, 0x63, 0xCC, 0x30, 0x04, 0x08, 0x81, 0x0C, 0x32, 0x92, 
  0x11, 0x46, 0x32, 0x00, 0x80, 0x36, 0x49, 0x56, 0x48, 0x02, 0x2E, 0x0F, 
  0xE7, 0xF3, 0x88, 0x27, 0x92, 0x64, 0xC9, 0x24, 0xE2, 0x78, 0x78, 0xE2, 
  0xD9, 0xC7, 0x90, 0x99, 0x99, 0x7F, 0xD8, 0x87, 0x8F, 0x0F, 0x3F, 0x01, 
  0x1E, 0x41, 0x72, 0x84, 0x7D, 0x32, 0x09, 0xC3, 0x23, 0xC0, 0x4F, 0x10, 
  0x1F, 0x82, 0x07, 0x06, 0x43, 0x86, 0x11, 0xFE, 0x98, 0x1F, 0x07, 0xE2, 
  0xE1, 0x10, 0x3C, 0x1E, 0x4B, 0xB2, 0xEC, 0x28, 0x3C, 0x88, 0x01, 0x00, 
  0x00, 0x00, 0x00, 0x40, 0x04, 0x80, 0x00, 0x00, 0x00, 0x00, 0x08, 0x40, 
  0x00, 0x00, 0x00, 0x00, 0x00, 0x08, 0x00, 0x00, 0x00, 0x00, 0x00, 0x00, 
  0x00, 0x00, 0x00, 0x00, 0x00, 0x00, 0x00, 0x00, 0x00, 0x00, 0x00, 0x10, 
  0x00, 0x00, 0x00, 0x00, 0x00, 0x00, 0x00, 0x00, 0x00, 0x00, 0x00, 0x00, 
  0x00, 0x00, 0x00, 0x00, 0x00, 0x08, 0x10, 0x83, 0x01, 0x10, 0x00, 0x00, 
  0x00, 0x00, 0x00, 0x00, 0xC0, 0x03, 0xC0, 0x00, 0x00, 0x00, 0x00, 0x08, 
  0x40, 0x00, 0x00, 0x00, 0x00, 0x00, 0x0C, 0x00, 0x00, 0x00, 0x00, 0x00, 
  0x00, 0x00, 0x00, 0x00, 0x00, 0x00, 0x00, 0x00, 0x00, 0x00, 0x00, 0x00, 
  0x00, 0x00, 0x00, 0x00, 0x00, 0x00, 0x00, 0x00, 0x00, 0x00, 0x00, 0x00, 
  0x00, 0x00, 0x00, 0x00, 0x00, 0x00, 0x00, 0x00, 0xFE, 0x00, 0x00, 0x00, 
  0x00, 0x00, 0x00, 0x00, 0x00, 0x00, 0x00, 0x00, 0x00, 0x00, 0x00, 0x00, 
  0x00, 0x00, 0x00, 0x00, 0x00, 0x00, 0x00, 0x00, 0x00, 0x00, 0x00, 0x00, 
  0x00, 0x00, 0x00, 0x00, 0x00, 0x00, 0x00, 0x00, 0x00, 0x00, 0x00, 0x00, 
  0x00, 0x00, 0x00, 0x00, 0x00, 0x00, 0x00, 0x00, 0x00, 0x00, 0x00, 0x00, 
  0x00, 0x00, 0x00, 0x00, 0x00, 0x00, 0x00, 0x00, 0x00, 0x00, 0x00, 0x00, 
  0x00, 0x00, 0x00, 0x00, 0x00, 0x00, 0x00, 0x00, 0x00, 0x00, 0x00, 0x00, 
  0x00, 0x00, 0x00, 0x00, 0x00, 0x00, 0x00, 0x00, 0x00, 0x00, 0x00, 0x00, 
  0x00, 0x00, 0x00, 0x00, 0x00, 0x00, 0x00, 0x00, 0x00, 0x00, 0x00, 0x00, 
  0x00, 0x00, 0x00, 0x00, 0x00, 0x00, 0x00, 0x00, 0x00, 0x00, 0x00, 0x00, 
  0x00, 0x00, 0x00, 0x00, 0x00, 0x00, 0x00, 0x00, 0x00, 0x00, 0x00, 0x00, 
  0x00, 0x00, 0x00, };
