#define consolas_italic_width 491
#define consolas_italic_height 14
static char consolas_italic_bits[] = {
  0x00, 0x00, 0x00, 0x00, 0x00, 0x00, 0x00, 0x00, 0x00, 0x00, 0x00, 0x00, 
  0x00, 0x00, 0x00, 0x00, 0x00, 0x00, 0x00, 0x00, 0x00, 0x00, 0x00, 0x00, 
  0x00, 0x00, 0x00, 0x00, 0x00, 0x00, 0x00, 0x00, 0x00, 0x00, 0x00, 0x00, 
  0x00, 0x00, 0x00, 0x00, 0x00, 0x00, 0x00, 0x00, 0x00, 0x00, 0x00, 0x00, 
  0x00, 0x00, 0x00, 0x00, 0x00, 0x00, 0x00, 0x00, 0x00, 0x00, 0x00, 0x00, 
  0x01, 0x00, 0x00, 0x02, 0x00, 0x08, 0x80, 0x03, 0x08, 0x18, 0x18, 0x01, 
  0x01, 0x00, 0x00, 0x00, 0x00, 0x00, 0x00, 0x01, 0x00, 0x00, 0x00, 0x00, 
  0x00, 0x86, 0x87, 0xF7, 0xF0, 0xF9, 0x78, 0x22, 0x8F, 0x47, 0x26, 0x98, 
  0x8D, 0x38, 0x1E, 0x8F, 0xC7, 0xF3, 0x1B, 0x85, 0x42, 0xB3, 0xD0, 0x8F, 
  0xE1, 0xF1, 0x60, 0x3C, 0x9C, 0x9F, 0xC7, 0x03, 0x00, 0x20, 0x00, 0x00, 
  0x0E, 0xC5, 0x73, 0x02, 0x00, 0x02, 0x00, 0x04, 0x40, 0x00, 0x08, 0x00, 
  0x08, 0x81, 0x01, 0x00, 0x00, 0x00, 0x00, 0x00, 0x00, 0x01, 0x00, 0x00, 
  0x00, 0x00, 0x00, 0x86, 0xC4, 0x30, 0x11, 0x08, 0x04, 0x33, 0x06, 0x64, 
  0x21, 0x98, 0xCD, 0x26, 0xB2, 0xC9, 0x44, 0x40, 0x88, 0x85, 0x42, 0x92, 
  0x19, 0xC4, 0x21, 0x81, 0x70, 0x04, 0x02, 0x88, 0x6C, 0x02, 0x00, 0x30, 
  0x00, 0x00, 0x99, 0x65, 0x51, 0x01, 0x3C, 0x1F, 0x8F, 0xC7, 0xF3, 0xF1, 
  0x7C, 0x0E, 0x8E, 0x8F, 0xE0, 0xD3, 0xF1, 0x74, 0x3C, 0x1D, 0xCF, 0x27, 
  0x12, 0x09, 0x4D, 0x22, 0x1E, 0xC7, 0x24, 0x10, 0x13, 0x0C, 0x06, 0x11, 
  0x02, 0xA6, 0x21, 0xD8, 0x5D, 0x62, 0x93, 0x98, 0x64, 0xC0, 0x88, 0xC5, 
  0x42, 0x0E, 0x0D, 0x86, 0x01, 0xC1, 0x68, 0x04, 0x03, 0xCC, 0x24, 0x06, 
  0x00, 0x10, 0x08, 0x84, 0xD6, 0xAF, 0xB1, 0x00, 0x26, 0x13, 0x41, 0x24, 
  0x62, 0x88, 0x6C, 0x08, 0x88, 0x89, 0xA0, 0x33, 0x99, 0x4C, 0x22, 0x93, 
  0x81, 0x20, 0x12, 0x29, 0x29, 0x22, 0x08, 0xC5, 0x26, 0x10, 0x1B, 0x0C, 
  0x02, 0x11, 0x02, 0xE6, 0x20, 0xF8, 0x55, 0x63, 0x91, 0x58, 0xC6, 0x40, 
  0x88, 0x64, 0x6B, 0x0E, 0x05, 0x83, 0x80, 0x71, 0x2C, 0x1E, 0x0F, 0x84, 
  0x23, 0x02, 0x00, 0x10, 0x08, 0x84, 0x95, 0xC2, 0x40, 0x00, 0x22, 0x93, 
  0x40, 0xE6, 0x21, 0xC8, 0x44, 0x08, 0x88, 0x8D, 0xB0, 0x12, 0x89, 0x44, 
  0x32, 0x13, 0x83, 0x20, 0xB2, 0xA9, 0x38, 0x36, 0x84, 0xCC, 0x33, 0x10, 
  0xF9, 0x7C, 0x33, 0x1F, 0x02, 0xE2, 0x30, 0xB8, 0x54, 0x22, 0xCF, 0xC8, 
  0x83, 0x41, 0x88, 0x2C, 0x2A, 0x06, 0x83, 0x81, 0xC0, 0xC0, 0x24, 0x30, 
  0x19, 0xC2, 0xC3, 0x03, 0x00, 0x10, 0x00, 0xC0, 0x97, 0xC2, 0xC1, 0x01, 
  0x33, 0x91, 0x60, 0x36, 0x20, 0xC8, 0x24, 0x0C, 0x88, 0x86, 0xF0, 0x92, 
  0x8D, 0x44, 0x13, 0x01, 0x86, 0x20, 0xA3, 0xB8, 0x18, 0x1C, 0xC6, 0x4F, 
  0x26, 0x18, 0x09, 0x04, 0xA3, 0x11, 0x03, 0xA2, 0x10, 0x84, 0x76, 0x21, 
  0x41, 0x48, 0x03, 0x43, 0xCC, 0x2C, 0x3D, 0x0F, 0xC3, 0x80, 0x60, 0xC0, 
  0x7E, 0x30, 0x11, 0x43, 0x06, 0x01, 0x00, 0x10, 0x00, 0xC0, 0xEA, 0x47, 
  0x73, 0x01, 0x32, 0x99, 0x40, 0x26, 0x20, 0x6C, 0x64, 0x08, 0x8C, 0xC2, 
  0x50, 0x9A, 0xC8, 0x66, 0x1A, 0x01, 0x84, 0x30, 0xE3, 0xEC, 0x3C, 0x0C, 
  0x43, 0x68, 0x26, 0xC8, 0x09, 0x04, 0xB2, 0x11, 0x01, 0xA3, 0x11, 0x84, 
  0x66, 0x33, 0xC1, 0x64, 0x02, 0x63, 0x48, 0x18, 0x3B, 0x09, 0x42, 0x80, 
  0x30, 0x40, 0x30, 0x18, 0x19, 0x61, 0x86, 0x61, 0x30, 0x00, 0x0C, 0x46, 
  0x4F, 0x41, 0x53, 0x01, 0x1E, 0x87, 0xC7, 0xE3, 0x21, 0x78, 0x26, 0x38, 
  0x4C, 0x84, 0x53, 0x9B, 0x38, 0x3E, 0x1E, 0x81, 0x87, 0xE3, 0x61, 0x4C, 
  0x26, 0x8C, 0x4F, 0xE8, 0xE3, 0x79, 0x78, 0x04, 0x9E, 0xC8, 0xE7, 0x11, 
  0xF1, 0x84, 0x62, 0x8E, 0x81, 0x27, 0xF2, 0x20, 0x78, 0x18, 0xB3, 0x18, 
  0xE1, 0xF3, 0xFB, 0x3D, 0x20, 0x0E, 0x87, 0xC0, 0xE3, 0x60, 0x30, 0x18, 
  0x0C, 0x46, 0x40, 0xF1, 0xC9, 0x00, 0x00, 0x00, 0x00, 0x00, 0x10, 0x40, 
  0x00, 0x00, 0x04, 0x00, 0x00, 0x00, 0x00, 0x02, 0x10, 0x00, 0x00, 0x00, 
  0x00, 0x00, 0x00, 0x06, 0x00, 0x00, 0x00, 0x00, 0x00, 0x00, 0x00, 0x00, 
  0x00, 0x00, 0x00, 0x00, 0x00, 0x00, 0x00, 0x01, 0x00, 0x00, 0x00, 0x00, 
  0x00, 0x00, 0x00, 0x00, 0x00, 0x00, 0x00, 0x00, 0x00, 0x00, 0x00, 0x00, 
  0x10, 0x00, 0x00, 0x42, 0x00, 0x60, 0x00, 0x00, 0x00, 0x00, 0x00, 0x00, 
  0x1C, 0x3C, 0x00, 0x80, 0x03, 0x00, 0x00, 0x00, 0x00, 0x02, 0x10, 0x00, 
  0x00, 0x00, 0x00, 0x00, 0x80, 0x03, 0x00, 0x00, 0x00, 0x00, 0x00, 0x00, 
  0x00, 0x00, 0x00, 0x00, 0x00, 0x00, 0x00, 0x00, 0x00, 0x07, 0x00, 0x00, 
  0x00, 0x00, 0x00, 0x00, 0x00, 0x00, 0x00, 0x00, 0x00, 0x00, 0x00, 0x00, 
  0x00, 0x00, 0x0C, 0x00, 0x00, 0x83, 0x03, 0x00, 0x00, 0x00, 0x00, 0x00, 
  0x00, 0x00, 0x00, 0x00, 0x00, 0x00, 0x00, 0x00, 0x00, 0x00, 0x00, 0x00, 
  0x00, 0x00, 0x00, 0x00, 0x00, 0x00, 0x00, 0x00, 0x00, 0x00, 0x00, 0x00, 
  0x00, 0x00, 0x00, 0x00, 0x00, 0x00, 0x00, 0x00, 0x00, 0x00, 0x00, 0x00, 
  0x00, 0x00, 0x00, 0x00, 0x00, 0x00, 0x00, 0x00, 0x00, 0x00, 0x00, 0x00, 
  0x00, 0x00, 0x00, 0x00, 0x00, 0x00, 0x00, 0x00, 0x00, 0x00, 0x00, 0x00, 
  0x00, 0x00, 0x00, 0x00, 0x00, 0x00, 0x00, 0x00, 0x00, 0x00, 0x00, 0x00, 
  0x00, 0x00, 0x00, 0x00, 0x00, 0x00, 0x00, 0x00, 0x00, 0x00, 0x00, 0x00, 
  0x00, 0x00, 0x00, 0x00, 0x00, 0x00, 0x00, 0x00, 0x00, 0x00, 0x00, 0x00, 
  0x00, 0x00, 0x00, 0x00, 0x00, 0x00, 0x00, 0x00, 0x00, 0x00, 0x00, 0x00, 
  0x00, 0x00, 0x00, 0x00, 0x00, 0x00, 0x00, 0x00, 0x00, 0x00, 0x00, 0x00, 
  0x00, 0x00, 0x00, 0x00, 0x00, 0x00, 0x00, 0x00, 0x00, 0x00, 0x00, 0x00, 
  0x00, 0x00, 0x00, 0x00, 0x00, 0x00, 0x00, 0x00, 0x00, 0x00, 0x00, 0x00, 
  0x00, 0x00, 0x00, 0x00, 0x00, 0x00, 0x00, 0x00, 0x00, 0x00, 0x00, 0x00, 
  0x00, 0x00, 0x00, 0x00, 0x00, 0x00, 0x00, 0x00, 0x00, 0x00, 0x00, 0x00, 
  0x00, 0x00, 0x00, 0x00, 0x00, 0x00, 0x00, 0x00, 0x00, 0x00, 0x00, 0x00, 
  0x00, 0x00, 0x00, 0x00, };
