#define consolas_bold_width 491
#define consolas_bold_height 14
static char consolas_bold_bits[] = {
  0x00, 0x00, 0x00, 0x00, 0x00, 0x00, 0x00, 0x00, 0x00, 0x00, 0x00, 0x00, 
  0x00, 0x00, 0x00, 0x00, 0x00, 0x00, 0x00, 0x00, 0x00, 0x00, 0x00, 0x00, 
  0x00, 0x00, 0x00, 0x00, 0x00, 0x00, 0x00, 0x00, 0x00, 0x00, 0x00, 0x00, 
  0x00, 0x00, 0x00, 0x00, 0x00, 0x00, 0x00, 0x00, 0x00, 0x00, 0x00, 0x00, 
  0x00, 0x00, 0x00, 0x00, 0x00, 0x00, 0x00, 0x00, 0x00, 0x00, 0x00, 0x80, 
  0x00, 0x00, 0x00, 0x01, 0x00, 0x06, 0xC0, 0x01, 0x04, 0x0C, 0x88, 0xC0, 
  0x01, 0x00, 0x00, 0x00, 0x00, 0x00, 0x80, 0x01, 0x00, 0x00, 0x00, 0x00, 
  0x00, 0xC3, 0xC3, 0xFB, 0xF8, 0x7C, 0x3C, 0x91, 0xCF, 0x23, 0x33, 0xC8, 
  0x4E, 0x1C, 0x0F, 0xC7, 0xC3, 0xF9, 0x8D, 0xC6, 0xA1, 0xD9, 0xC8, 0xC7, 
  0xE0, 0x78, 0x30, 0x3E, 0xDE, 0x8F, 0xC3, 0x01, 0x00, 0x18, 0x00, 0x00, 
  0x87, 0xE2, 0x33, 0x01, 0x00, 0x01, 0x00, 0x06, 0x60, 0x00, 0x04, 0x08, 
  0x88, 0x80, 0x01, 0x00, 0x00, 0x00, 0x00, 0x00, 0x80, 0x00, 0x00, 0x00, 
  0x00, 0x00, 0x00, 0x67, 0x66, 0x9A, 0x19, 0x0C, 0xAE, 0x11, 0x03, 0xA6, 
  0x31, 0xDC, 0x6E, 0xB6, 0x99, 0xCD, 0x66, 0x60, 0xCC, 0x46, 0x63, 0x9B, 
  0x4C, 0xE7, 0xD0, 0xE8, 0x38, 0x06, 0x07, 0xCD, 0x66, 0x03, 0x00, 0x18, 
  0x00, 0x80, 0x89, 0xE2, 0xA9, 0x01, 0x1E, 0x0F, 0x8F, 0xC7, 0x61, 0xF8, 
  0x3D, 0x0E, 0x8F, 0x0D, 0xF1, 0xF3, 0x70, 0x3C, 0x3C, 0x8F, 0xE7, 0x27, 
  0x1B, 0x8D, 0x6D, 0x23, 0x1F, 0x47, 0x66, 0x90, 0x19, 0x0C, 0x02, 0x19, 
  0x02, 0xB2, 0x11, 0xFC, 0x4C, 0x23, 0xD9, 0x48, 0x66, 0x60, 0x88, 0x64, 
  0x29, 0x8F, 0x0D, 0xA3, 0x81, 0x41, 0x38, 0x02, 0x01, 0x4C, 0x36, 0x03, 
  0x00, 0x10, 0x0C, 0x86, 0xEE, 0xAF, 0xB0, 0x00, 0x30, 0x9B, 0xC3, 0x66, 
  0xFB, 0xD9, 0x6C, 0x0C, 0x88, 0x06, 0xB1, 0xB2, 0xD9, 0x6C, 0x36, 0x9B, 
  0x81, 0x21, 0x93, 0x8D, 0x3C, 0x32, 0x8D, 0x65, 0x36, 0x18, 0x19, 0x04, 
  0xBB, 0x1F, 0x03, 0xE2, 0x30, 0xF4, 0x5C, 0xA3, 0xD9, 0x78, 0xE6, 0x41, 
  0x8C, 0x6C, 0x2A, 0x06, 0x07, 0x81, 0x80, 0x70, 0x2C, 0x1E, 0x0F, 0xC6, 
  0x33, 0x03, 0x00, 0x18, 0x0C, 0xC6, 0x9F, 0xE2, 0x40, 0x00, 0x3C, 0x91, 
  0x60, 0xE6, 0x63, 0x48, 0x64, 0x08, 0x88, 0x83, 0xA1, 0x96, 0xCD, 0x6C, 
  0x33, 0x83, 0x83, 0x20, 0xB2, 0xB9, 0x38, 0x16, 0x84, 0xCD, 0x23, 0x90, 
  0xF9, 0x7C, 0x33, 0x19, 0x03, 0xE2, 0x30, 0xB4, 0x76, 0x63, 0xCF, 0xC8, 
  0xC3, 0x63, 0xC8, 0x2C, 0x3E, 0x0E, 0x83, 0x81, 0xC0, 0xC0, 0x24, 0xB0, 
  0x1B, 0xC2, 0xE7, 0x03, 0x00, 0x10, 0x00, 0x40, 0xD5, 0xC2, 0x63, 0x00, 
  0x36, 0x99, 0x40, 0x36, 0x60, 0x78, 0x6C, 0x08, 0x98, 0x03, 0xF1, 0x92, 
  0x89, 0x44, 0x23, 0x01, 0x8E, 0x31, 0xB3, 0xFC, 0x38, 0x1C, 0x86, 0x4F, 
  0x36, 0x98, 0x19, 0x0C, 0xB2, 0x11, 0x02, 0xA3, 0x31, 0xAC, 0x76, 0x33, 
  0xC3, 0xCC, 0x03, 0x63, 0x8C, 0x3C, 0x3F, 0x0F, 0xC2, 0x80, 0x61, 0xC0, 
  0x7E, 0x30, 0x19, 0x43, 0x06, 0x03, 0x00, 0x10, 0x00, 0xC0, 0xFF, 0x47, 
  0xE3, 0x01, 0x3B, 0x9B, 0x63, 0x66, 0x60, 0x08, 0x64, 0x0C, 0x8C, 0x06, 
  0xB3, 0xB6, 0xD9, 0x6E, 0x3A, 0x03, 0x8C, 0x61, 0xE3, 0xF8, 0x2C, 0x1C, 
  0xC7, 0xCC, 0xE6, 0x9A, 0x19, 0x0C, 0x2E, 0x19, 0x03, 0xB3, 0x31, 0x84, 
  0x66, 0x36, 0x81, 0x4F, 0x46, 0x43, 0xD8, 0x38, 0x36, 0x1B, 0xC3, 0xC2, 
  0x71, 0xC8, 0x70, 0x30, 0x1B, 0xC3, 0x86, 0x61, 0x30, 0x10, 0x0C, 0xC6, 
  0x4F, 0xD2, 0x53, 0x01, 0x3E, 0x0F, 0xC7, 0xC7, 0x63, 0xF8, 0x64, 0x3E, 
  0x8C, 0xCC, 0x97, 0x92, 0x71, 0x3C, 0x3E, 0x83, 0x07, 0xE7, 0x63, 0xD8, 
  0x64, 0x08, 0xDF, 0xC8, 0xC3, 0xFB, 0xF8, 0x0C, 0x3C, 0x99, 0xCF, 0x21, 
  0xF3, 0x85, 0x66, 0x1C, 0x01, 0x47, 0xE6, 0x41, 0x70, 0x18, 0xB3, 0x19, 
  0xC2, 0xE7, 0xF3, 0x79, 0x20, 0x1E, 0x8E, 0xC1, 0xE3, 0x60, 0x30, 0x10, 
  0x0C, 0x4E, 0x4F, 0xE3, 0x99, 0x01, 0x00, 0x00, 0x00, 0x00, 0x00, 0xCC, 
  0x00, 0x00, 0x0C, 0x00, 0x00, 0x00, 0x00, 0x04, 0x20, 0x00, 0x00, 0x00, 
  0x00, 0x00, 0x00, 0x0C, 0x00, 0x00, 0x00, 0x00, 0x00, 0x00, 0x00, 0x00, 
  0x00, 0x00, 0x00, 0x00, 0x00, 0x00, 0x00, 0x06, 0x00, 0x00, 0x00, 0x00, 
  0x00, 0x00, 0x00, 0x00, 0x00, 0x00, 0x00, 0x00, 0x00, 0x00, 0x00, 0x00, 
  0x20, 0x00, 0x00, 0x84, 0x00, 0x40, 0x00, 0x00, 0x00, 0x00, 0x00, 0x00, 
  0x00, 0x78, 0x00, 0x00, 0x07, 0x00, 0x00, 0x00, 0x00, 0x04, 0x30, 0x00, 
  0x00, 0x00, 0x00, 0x00, 0x00, 0x07, 0x00, 0x00, 0x00, 0x00, 0x00, 0x00, 
  0x00, 0x00, 0x00, 0x00, 0x00, 0x00, 0x00, 0x00, 0x00, 0x0E, 0x00, 0x00, 
  0x00, 0x00, 0x00, 0x00, 0x00, 0x00, 0x00, 0x00, 0x00, 0x00, 0x00, 0x00, 
  0x00, 0x00, 0x18, 0x00, 0x00, 0x83, 0x07, 0x00, 0x00, 0x00, 0x00, 0x00, 
  0x00, 0x00, 0x00, 0x00, 0x00, 0x00, 0x00, 0x00, 0x00, 0x00, 0x00, 0x00, 
  0x00, 0x00, 0x00, 0x00, 0x00, 0x00, 0x00, 0x00, 0x00, 0x00, 0x00, 0x00, 
  0x00, 0x00, 0x00, 0x00, 0x00, 0x00, 0x00, 0x00, 0x00, 0x00, 0x00, 0x00, 
  0x00, 0x00, 0x00, 0x00, 0x00, 0x00, 0x00, 0x00, 0x00, 0x00, 0x00, 0x00, 
  0x00, 0x00, 0x00, 0x00, 0x00, 0x00, 0x00, 0x00, 0x00, 0x00, 0x00, 0x00, 
  0x00, 0x00, 0x00, 0x00, 0x00, 0x00, 0x00, 0x00, 0x00, 0x00, 0x00, 0x00, 
  0x00, 0x00, 0x00, 0x00, 0x00, 0x00, 0x00, 0x00, 0x00, 0x00, 0x00, 0x00, 
  0x00, 0x00, 0x00, 0x00, 0x00, 0x00, 0x00, 0x00, 0x00, 0x00, 0x00, 0x00, 
  0x00, 0x00, 0x00, 0x00, 0x00, 0x00, 0x00, 0x00, 0x00, 0x00, 0x00, 0x00, 
  0x00, 0x00, 0x00, 0x00, 0x00, 0x00, 0x00, 0x00, 0x00, 0x00, 0x00, 0x00, 
  0x00, 0x00, 0x00, 0x00, 0x00, 0x00, 0x00, 0x00, 0x00, 0x00, 0x00, 0x00, 
  0x00, 0x00, 0x00, 0x00, 0x00, 0x00, 0x00, 0x00, 0x00, 0x00, 0x00, 0x00, 
  0x00, 0x00, 0x00, 0x00, 0x00, 0x00, 0x00, 0x00, 0x00, 0x00, 0x00, 0x00, 
  0x00, 0x00, 0x00, 0x00, 0x00, 0x00, 0x00, 0x00, 0x00, 0x00, 0x00, 0x00, 
  0x00, 0x00, 0x00, 0x00, 0x00, 0x00, 0x00, 0x00, 0x00, 0x00, 0x00, 0x00, 
  0x00, 0x00, 0x00, 0x00, };
